<!--?xml version="1.0" encoding="utf-8"?-->
<svg version="1.1" x="0px" y="0px" id="iconz02602439165200" viewBox="0 0 512 512" xmlns="http://www.w3.org/2000/svg" style="enable-background:new 0 0 512 512;" xml:space="preserve"><style type="text/css">
.baseF{fill:#FFFFFF}
.baseB{fill:#232256}
.eyeF{fill:#FFFFFF}
.eyeB{fill:#232256}
.eyeT{fill:#BDC7D6}
.hairF{fill:#FFFFFF}
.hairB{fill:#232256}
.hairU{fill:#5E7AA5}
.hairT{fill:#BDC7D6}
.noseF{fill:#FFFFFF}
.noseB{fill:#232256}
.noseU{fill:#5E7AA5}
.mayugeB{fill:#232256}
.mayugeU{fill:#5E7AA5}
.mayugeT{fill:#BDC7D6}
.mayugeF{fill:#FFFFFF}
.mouthF{fill:#FFFFFF}
.mouthB{fill:#232256}
.mouthT{fill:#BDC7D6}
.mouthU{fill:#5E7AA5}
.hatF{fill:#FFFFFF}
.hatB{fill:#232256}
.hatU{fill:#5E7AA5}
.hatT{fill:#BDC7D6}
.higeU{fill:#5E7AA5}
.higeB{fill:#232256}
.higeF{fill:#FFFFFF}
.bodyF{fill:#FFFFFF}
.bodyB{fill:#232256}
.bodyU{fill:#5E7AA5}
.bodyT{fill:#BDC7D6}
.bodyS{fill:#8DA6C9}
.bodyH{fill:#FFFFFF}
.glassF{fill:#FFFFFF}
.glassB{fill:#232256}
.glassT{fill:#BDC7D6}
.glassU{fill:#5E7AA5}
.kirakiraF{fill:#FFFFFF}
.kirakiraB{fill:#232256}
.kirakiraU{fill:#5E7AA5}
.kirakiraT{fill:#BDC7D6}
.kirakiraH{fill:#FFFFFF}
.backF{fill:#FFFFFF}
.backB{fill:#232256}
.backU{fill:#5E7AA5}
.backS{fill:#8DA6C9}
.backA{fill:#FFE38B}
.backG{fill:#EEEEEF}
.backC{fill:#19DB9F}
.backD{fill:#DBBCA1}
</style>
<g class="icosvg">
<g>
	<path class="bodyT" d="M462.892,571.449c0,31.825,0,73.968,0,73.968H49.108c0,0,0-42.143,0-73.968   c-4.424-117.085,58.513-168.835,129.769-200.784c10.104-5.448,15.335-8.135,27.816-9.6c9.888-1.152,24.312-1.535,49.296-1.871   c25.008,0.336,39.431,0.72,49.32,1.871c12.48,1.465,17.712,4.152,27.816,9.6C404.404,402.524,467.405,454.701,462.892,571.449z"></path>
	<path class="bodyH" d="M321.076,399.513c1.432,31.12-23.422,57.521-54.673,57.432c0,0-20.808,0-20.808,0   c-49.866,0.067-72.547-61.568-38.904-95.88c14.333-2.281,84.296-2.279,98.616,0C315.051,370.953,321.076,384.513,321.076,399.513z"></path>
	<path class="bodyB" d="M468.169,571.449c-0.002-37.182-3.748-66.335-12.514-91.031c-17.805-59.276-92.495-104.32-120.326-114.559   c-9.772-5.348-16.365-8.295-27.447-9.769c-0.033-0.032-0.064-0.066-0.097-0.098c-7.859-1.188-95.71-1.188-103.571,0.001   c-0.033,0.032-0.062,0.066-0.094,0.097c-11.087,1.475-17.679,4.422-27.454,9.772C148.074,376.467,74.102,421.418,56.346,480.42   c-8.767,24.694-12.513,53.846-12.515,91.029c0,31.825,0,73.968,0,73.968c0.108,6.87,10.424,6.993,10.554,0h-0.001   c1.981-70.111-13.685-162.717,51.345-220.806c25.658-23.825,48.619-37.403,75.375-49.152c5.203-2.789,8.803-4.723,12.607-6.141   c-22.298,38.166,2.636,93.111,51.885,92.952c-0.001,0.001,20.807,0.001,20.807,0.001c34.182,0.086,61.444-28.693,59.998-62.758   c0.001-11.057-2.983-21.334-8.167-30.213c3.824,1.42,7.435,3.357,12.659,6.159c27.582,10.123,98.334,53.306,114.813,108.493   c8.204,23.081,11.91,51.001,11.908,87.497c0,31.825,0,73.968,0,73.968c0.056,6.817,10.445,7.025,10.554,0   C468.169,645.416,468.169,603.273,468.169,571.449z M266.404,451.619c-21.758,0.106-39.218,2.054-55.701-14.454   c-18.778-17.588-19.236-52.504-1.468-71.019c9.434-0.948,23.486-1.317,46.753-1.627c23.249,0.309,37.292,0.677,46.726,1.622   c8.075,8.812,13.034,20.46,13.038,33.371C317.165,427.691,294.723,451.708,266.404,451.619z"></path>
</g>

<g>
	<path class="baseF" d="M370.823,211.357h-1.083C365.238,142.073,331.823,86.564,256,86.564s-109.237,55.509-113.74,124.793h-1.083   c-14.838-8.773-36.38,8.077-32.988,28.423c7.12,42.713,9.938,53.304,22.629,59.716c6.476,3.272,12.413,3.387,12.413,3.387h1.277   c4.228,26.866,12.675,46.638,23.503,61.72c16.545,23.046,59.074,51.94,87.989,51.94s71.445-28.894,87.989-51.94   c10.828-15.082,19.275-34.854,23.503-61.72h1.277c0,0,5.937-0.115,12.413-3.387c12.689-6.413,15.509-17.004,22.629-59.716   C407.203,219.434,385.661,202.584,370.823,211.357z"></path>
	<path class="baseB" d="M400.198,213.073c-2.749-2.844-5.951-5.161-9.439-6.793c-3.486-1.629-7.276-2.577-11.159-2.578   c-1.71-0.003-3.434,0.222-5.14,0.617c-1.031-11.102-2.802-21.857-5.42-32.084c-6.669-26.051-18.756-48.836-37.452-65.137   c-9.337-8.142-20.307-14.626-32.909-19.04c-12.6-4.418-26.816-6.772-42.68-6.771c-21.149-0.004-39.382,4.191-54.738,11.86   c-23.061,11.495-39.403,30.751-49.784,54.246c-7.548,17.061-12.016,36.394-13.923,56.93c-1.712-0.397-3.443-0.623-5.159-0.621   c-3.884,0.001-7.675,0.949-11.161,2.578c-5.23,2.452-9.827,6.427-13.198,11.446c-3.361,5.014-5.486,11.134-5.486,17.767   c-0.001,1.693,0.138,3.421,0.432,5.166l-0.001-0.011c3.584,21.412,6.032,34.841,9.469,44.399c1.725,4.772,3.763,8.644,6.442,11.822   c2.67,3.182,5.926,5.521,9.544,7.338c7.605,3.814,14.229,3.926,14.689,3.953c0.384,0.007,0.758-0.031,1.12-0.102   c2.368,10.737,4.358,19.607,6.421,27.314c1.962,7.323,4.003,13.631,6.538,19.479c2.532,5.846,5.566,11.212,9.404,16.555   c8.912,12.368,23.386,24.702,39.524,34.221c8.072,4.747,16.557,8.764,25.005,11.623c8.45,2.854,16.864,4.565,24.86,4.571   c7.995-0.006,16.409-1.717,24.859-4.571c12.669-4.291,25.436-11.177,36.735-19.245c11.296-8.082,21.11-17.311,27.791-26.6   c3.839-5.343,6.873-10.709,9.407-16.555c3.804-8.782,6.493-18.557,9.476-31.321c1.098-4.705,2.238-9.833,3.483-15.473   c0.363,0.071,0.737,0.11,1.123,0.103c0.459-0.027,7.083-0.139,14.688-3.953c3.616-1.817,6.873-4.157,9.543-7.338   c2.006-2.378,3.662-5.163,5.084-8.407c2.134-4.876,3.799-10.803,5.479-18.525c1.672-7.721,3.342-17.251,5.35-29.288l0.001-0.009   c0.287-1.735,0.424-3.455,0.423-5.145C409.433,226.637,405.68,218.747,400.198,213.073z M398.606,238.913   c-3.537,21.3-6.057,34.522-8.984,42.541c-1.454,4.017-2.946,6.664-4.587,8.611c-1.651,1.943-3.505,3.332-6.233,4.721   c-2.679,1.356-5.319,2.081-7.245,2.447c-0.568,0.109-1.046,0.18-1.471,0.235c1.566-7.071,3.304-14.837,5.329-23.534   c0.66-2.838-1.105-5.674-3.942-6.335c-2.838-0.661-5.675,1.104-6.335,3.942h-0.001c-6.555,28.163-10.235,47.056-14,61.099   c-1.881,7.023-3.773,12.815-6.028,18.011c-2.257,5.198-4.868,9.82-8.296,14.599c-7.635,10.678-21.253,22.452-36.3,31.279   c-7.522,4.426-15.402,8.142-23.036,10.722c-7.631,2.586-15.015,4.02-21.477,4.015c-6.463,0.005-13.847-1.429-21.478-4.015   c-11.454-3.868-23.448-10.302-33.982-17.834c-10.538-7.518-19.628-16.171-25.356-24.168c-3.427-4.778-6.037-9.401-8.295-14.599   c-3.38-7.785-5.95-16.952-8.88-29.521c-2.934-12.561-6.229-28.464-11.147-49.589c-0.661-2.838-3.498-4.603-6.336-3.942   c-2.837,0.661-4.602,3.497-3.941,6.335c2.021,8.683,3.766,16.476,5.329,23.537c-1.86-0.247-5.259-0.925-8.716-2.685   c-2.729-1.39-4.583-2.779-6.233-4.721c-1.235-1.465-2.374-3.308-3.489-5.845c-1.672-3.796-3.231-9.136-4.827-16.52   c-1.602-7.384-3.257-16.799-5.255-28.788l-0.001-0.011c-0.196-1.154-0.286-2.289-0.287-3.408c-0.007-5.8,2.494-11.167,6.28-15.086   c1.884-1.953,4.071-3.517,6.32-4.565c2.25-1.052,4.545-1.587,6.691-1.586c1.535,0.005,2.991,0.276,4.398,0.831   c-0.209,4.295-0.347,8.618-0.348,12.991c0,2.914,2.363,5.277,5.277,5.277c2.913,0,5.277-2.363,5.277-5.277H147   c0-18.842,1.993-36.867,6.183-53.224c6.291-24.557,17.48-45.262,34.164-59.799c8.352-7.277,18.098-13.049,29.464-17.036   c11.365-3.983,24.364-6.176,39.19-6.177c19.77,0.004,36.28,3.892,50.023,10.749c20.587,10.293,35.194,27.323,44.849,49.076   c9.632,21.732,14.134,48.145,14.128,76.412c0,2.914,2.362,5.277,5.277,5.277c2.913,0,5.277-2.363,5.277-5.277   c0-4.373-0.12-8.705-0.329-12.999c1.402-0.549,2.85-0.819,4.376-0.823c2.146-0.001,4.44,0.533,6.689,1.585   c3.375,1.57,6.598,4.315,8.897,7.759c2.307,3.449,3.701,7.533,3.701,11.893C398.886,236.612,398.796,237.752,398.606,238.913z"></path>
</g>

<g>
	<g>
		<path class="hairB" d="M365.473,100.621c4.804-12.914-22.424-46.549-22.424-46.549L325.39,66.534
			c-6.538-13.842-51.112-28.852-51.112-28.852l-5.127,19.376c0,0-9.159-9.016-29.858-11.698c-24.945-3.23-59.476-7.678-59.476-7.678
			s-7.31,12.893,0,34.711c-11.535,0-38.093,0-38.093,0s1.029,23.803,6.723,28.228c-18.045,9.504-21.888,26.461-37.963,35.002
			l16.093,24.511v49.744c0,0,11.216,45.998,16.654,46.055c5.438,0.056,8.448-52.622,19.358-55.875
			c10.91-3.251,17.228-57.326,17.228-57.326L256,145.4l78.103-6.077v3.408c0,0,6.318,54.075,17.228,57.326
			c10.91,3.253,13.92,55.931,19.358,55.875s16.654-46.055,16.654-46.055v-49.744l11.689-50.653
			C389.028,103.998,380.37,100.621,365.473,100.621z"></path>
	</g>
</g>


<g>
	<path class="mouthB" d="M281.371,345.627c-3.338,3.246-16.347,5.354-26.05,5.354c-9.703,0-22.712-2.108-26.05-5.354
		c-2.753-2.677-4.397,0.956-1.912,4.206c2.486,3.25,13.575,8.073,27.962,8.073c14.387,0,25.476-4.823,27.962-8.073
		C285.768,346.583,284.124,342.95,281.371,345.627z"></path>
</g>


<g>
	<path class="noseB" d="M265.128,318.582c0,2.602-3.748,4.711-8.367,4.711c-4.622,0-8.37-2.109-8.37-4.711s3.748,0,8.37,0
		C261.381,318.582,265.128,315.981,265.128,318.582z"></path>
</g>


<g>
	<g>
		<circle class="eyeB" cx="206.641" cy="270.26" r="7.856"></circle>
		<circle class="eyeB" cx="305.36" cy="270.26" r="7.856"></circle>
	</g>
</g>


<g>
	<g>
		<path class="mayugeB" d="M239.568,239.826c-0.124-1.407-1.089-2.575-2.443-2.974c-16.813-4.942-46.248-5.101-55.747,6.428
			c-2.357,4.473,3.726,2.465,8.286,1.071c13.387-4.092,39.603-1.644,45.732,0C239.382,245.422,239.778,242.206,239.568,239.826z"></path>
		<path class="mayugeB" d="M272.433,239.826c0.124-1.407,1.089-2.575,2.443-2.974c16.813-4.942,46.248-5.101,55.747,6.428
			c2.357,4.473-3.726,2.465-8.286,1.071c-13.387-4.092-39.603-1.644-45.732,0C272.619,245.422,272.223,242.206,272.433,239.826z"></path>
	</g>
</g>


<g>
	<path class="glassB" d="M360.908,250.218h-9.261c-6.377-17.227-22.901-29.524-42.346-29.527c-19.413,0.002-35.916,12.26-42.318,29.44
		c-3.519-1.455-7.247-2.224-10.983-2.224c-3.736,0-7.465,0.764-10.984,2.224c-6.403-17.18-22.904-29.438-42.316-29.44
		c-19.446,0.002-35.97,12.3-42.347,29.527h-9.26c-3.097,0-5.607,2.51-5.607,5.609c0,3.096,2.51,5.606,5.607,5.606h6.636
		c-0.143,1.467-0.225,2.951-0.225,4.455c0.004,24.963,20.231,45.192,45.196,45.197c24.963-0.005,45.193-20.234,45.197-45.197
		c0-1.573-0.082-3.124-0.239-4.655l0.148-0.077c2.565-1.357,5.375-2.034,8.195-2.034c2.811,0,5.625,0.677,8.193,2.034l0.149,0.077
		c-0.157,1.53-0.239,3.082-0.239,4.655c0.004,24.963,20.234,45.192,45.198,45.197c24.963-0.005,45.191-20.234,45.195-45.197
		c0-1.505-0.082-2.988-0.225-4.455h6.638c3.096,0,5.606-2.51,5.606-5.606C366.515,252.728,364.004,250.218,360.908,250.218z
		 M226.73,289.916c-6.168,6.159-14.629,9.952-24.029,9.954c-9.402-0.002-17.862-3.795-24.029-9.954
		c-6.157-6.166-9.949-14.627-9.953-24.028c0.004-9.403,3.795-17.862,9.953-24.03c6.168-6.157,14.627-9.949,24.029-9.952
		c9.401,0.002,17.862,3.795,24.029,9.952c6.158,6.169,9.95,14.627,9.954,24.03C236.68,275.289,232.888,283.75,226.73,289.916z
		 M333.329,289.916c-6.168,6.159-14.627,9.952-24.028,9.954c-9.402-0.002-17.863-3.795-24.03-9.954
		c-6.158-6.166-9.95-14.627-9.954-24.028c0.004-9.403,3.796-17.862,9.954-24.03c6.168-6.157,14.629-9.949,24.03-9.952
		c9.401,0.002,17.861,3.795,24.028,9.952c6.158,6.169,9.949,14.627,9.953,24.03C343.279,275.289,339.487,283.75,333.329,289.916z"></path>
</g>

</g></svg>